<svg id="Capa_1" data-name="Capa 1" xmlns="http://www.w3.org/2000/svg" viewBox="0 0 766 811.37"><defs><style>.cls-1{fill:#d2d2d2;}</style></defs><g id="FBV756.tif"><path class="cls-1" d="M236.63,193.51c-23.38-34.49-10.29-65.42,14.47-84.45C272.67,92.48,297,84,324.57,89.24c15.47,3,27.64,12.28,38,23.63,7.36,8.08,13.75,17,20.53,25.57,5.9-7.6,11.47-15.84,18.09-23.13C439,73.63,507.62,82.23,534.84,132c9.8,17.9,9.39,35.83-.55,53.59-1.3,2.33-2.68,4.6-4.66,8h9.06c30.06,0,60.13-.15,90.18,0,29.21.18,54.12,25.39,54.23,54.62.08,21.51-.29,43,.1,64.54.41,22.4-9.9,38.68-28.33,49.84-5.75,3.48-7,7.1-7,13.06q.21,145.23.1,290.46c0,27.51-18.36,50.63-44.58,56.13-4.79,1-9.85,1-14.79,1-137.07,0-274.13-.57-411.19.48-30.21.23-59.9-25.77-59.48-59.3,1.2-96,.36-192,.61-288,0-6.93-2-10.57-8-14.24-17.88-10.95-27.78-27-27.72-48.57s-.09-43,0-64.55a55.92,55.92,0,0,1,56-55.51q44.27-.06,88.53,0Zm164.5,177.1v317c3,.14,5.45.36,7.88.36q90.58,0,181.18,0c18.61,0,22.12-3.57,22.13-22.37q.06-143.16,0-286.31c0-2.89-.29-5.79-.44-8.68Zm-247.58-.17V381q0,142.68,0,285.37c0,17.26,4.22,21.66,21.33,21.67q90.56.06,181.11,0h8.71V370.44Zm247.51-36.29c2.53.19,4.43.46,6.33.46q110.82,0,221.63,0c14.07,0,18.79-4.76,18.89-19,.16-21.5.07-43,0-64.52,0-18.14-4.34-22.36-22.48-22.35-36.94,0-73.88-.24-110.81.07-37.7.31-75.4,1.16-113.6,1.78Zm-36.12.12V231.69c-10.55-.61-20.67-1.61-30.8-1.69q-98.42-.81-196.82-1.21c-14.09-.06-18.81,4.88-18.89,19-.12,21.51-.05,43,0,64.52,0,18.77,3.48,22.3,22,22.3q108.36,0,216.7,0C359.55,334.61,362,334.4,364.94,334.27Zm.83-139.88c-2.38-22.14-10.36-39.87-23.75-55.12-18-20.5-53.4-21.58-73.15-2.51-13,12.52-13,32.32,1.16,43.51,6.65,5.24,15.29,10.17,23.43,10.93C317.14,193.42,341,193.46,365.77,194.39Zm34.77-1.82c23.21,0,44.95,1,66.51-.48,9.33-.65,19.25-5.08,27.22-10.34,14-9.23,16.22-27.76,6.6-40.82-11.65-15.83-44.87-24-61.71-13.83C415.06,141.71,404.62,165,400.54,192.57Z"/></g></svg>