<svg id="Capa_1" data-name="Capa 1" xmlns="http://www.w3.org/2000/svg" viewBox="0 0 766 811.37"><defs><style>.cls-1{fill:#d2d2d2;}</style></defs><g id="_8y4Stp.tif" data-name="8y4Stp.tif"><path class="cls-1" d="M41.82,167.2H724.18A18.82,18.82,0,0,1,743,186V625.35a18.81,18.81,0,0,1-18.82,18.82H41.82A18.81,18.81,0,0,1,23,625.35V186A18.82,18.82,0,0,1,41.82,167.2Zm586.62,35.38H137.57c-17.36,0-25.46,21.5-12.42,33L370.56,451.09a18.81,18.81,0,0,0,24.84,0L640.86,235.54C653.9,224.08,645.8,202.58,628.44,202.58ZM137.34,609H628.66c17.36,0,25.46-21.51,12.41-33L486.3,440.09a18.82,18.82,0,0,0-24.84,0l-66.06,58a18.82,18.82,0,0,1-24.83,0l-66.06-58a18.82,18.82,0,0,0-24.84,0L124.92,576C111.88,587.48,120,609,137.34,609ZM516.75,419.83,676.32,560c12.16,10.68,31.24,2,31.24-14.13V265.52a18.82,18.82,0,0,0-31.24-14.14L516.74,391.55A18.82,18.82,0,0,0,516.75,419.83ZM249.22,391.54,89.54,251.29c-12.16-10.68-31.24-2-31.24,14.14V545.94a18.82,18.82,0,0,0,31.24,14.14L249.23,419.83A18.83,18.83,0,0,0,249.22,391.54Z"/></g></svg>